<svg id="Layer_1" data-name="Layer 1" xmlns="http://www.w3.org/2000/svg" viewBox="0 0 31.04 21.82"><title>(BÖ)</title><path d="M8.13,4.7a30.91,30.91,0,0,1,5-.36c2.36,0,3.81.23,5.06,1A3.73,3.73,0,0,1,20.25,8.7a3.87,3.87,0,0,1-2.82,3.66v0a4.29,4.29,0,0,1,3.41,4.22,4.56,4.56,0,0,1-1.78,3.63c-1.25,1-3.33,1.55-6.74,1.55a30,30,0,0,1-4.19-.25ZM12,11.26h1.27c2,0,3.13-.84,3.13-2.11s-1-2-2.75-2a10.59,10.59,0,0,0-1.65.1Zm0,7.6a12.23,12.23,0,0,0,1.5.05c1.75,0,3.31-.66,3.31-2.47S15.23,14,13.3,14H12Z" transform="translate(-8.13 -0.04)"/><path d="M39.17,12.86c0,5.62-3.41,9-8.41,9S22.7,18,22.7,13.14c0-5.14,3.28-9,8.34-9C36.3,4.19,39.17,8.13,39.17,12.86ZM26.52,1.79A1.73,1.73,0,0,1,28.23,0h0a1.74,1.74,0,1,1-1.75,1.75Zm.23,11.34c0,3.36,1.58,5.72,4.17,5.72S35,16.36,35,13c0-3.08-1.47-5.72-4.14-5.72s-4.11,2.48-4.11,5.78Zm5.1-11.34A1.71,1.71,0,0,1,33.52,0h.06a1.74,1.74,0,1,1-1.73,1.75Z" transform="translate(-8.13 -0.04)"/></svg>