<svg id="Layer_1" data-name="Layer 1" xmlns="http://www.w3.org/2000/svg" viewBox="0 0 31.63 31.63"><defs><style>.cls-1{fill:none;stroke:#000;stroke-miterlimit:10;stroke-width:2px;}</style></defs><title>kitle</title><path class="cls-1" d="M1233.28,372.55h0a4.53,4.53,0,0,1-4.53-4.53h0a4.53,4.53,0,0,0-4.53-4.53h-2.47a4.53,4.53,0,0,0-4.53,4.53h0a4.53,4.53,0,0,1-4.53,4.53h0a4.53,4.53,0,0,0-4.53,4.53v2.47a4.53,4.53,0,0,0,4.53,4.53h0a4.53,4.53,0,0,1,4.53,4.53h0a4.53,4.53,0,0,0,4.53,4.53h2.47a4.53,4.53,0,0,0,4.53-4.53h0a4.53,4.53,0,0,1,4.53-4.53h0a4.53,4.53,0,0,0,4.53-4.53v-2.47A4.53,4.53,0,0,0,1233.28,372.55Z" transform="translate(-1207.18 -362.5)"/></svg>