<svg id="Layer_1" data-name="Layer 1" xmlns="http://www.w3.org/2000/svg" viewBox="0 0 31.14 31"><title>Punch biopsi</title><path d="M30.5,2.6A4.24,4.24,0,0,0,26.9.3H24.3l.3,1.2A3,3,0,0,1,24,4.1l-7.8,9h0c-.2.2-.3.3-.5.3a1,1,0,0,1-.3-.1L7.6,4.1A3.11,3.11,0,0,1,7,1.5L7.2.3H4.8A4.09,4.09,0,0,0,1.2,2.5a7.06,7.06,0,0,0-.1,6.9l9.2,12.4a4.9,4.9,0,0,0,2.5,1.6v7.9h2V21.5h-1a3,3,0,0,1-2-1L2.7,8.5a5.3,5.3,0,0,1,.2-4.9A2.32,2.32,0,0,1,4.8,2.3h.1A6.43,6.43,0,0,0,6,5.5l7.9,9.2a2.43,2.43,0,0,0,1.8.8,2.58,2.58,0,0,0,1.7-.8h0l8-9.3a5.1,5.1,0,0,0,1.1-3.1h.2a2.32,2.32,0,0,1,1.9,1.3,5.25,5.25,0,0,1,.1,4.9l-9,11.9a2.76,2.76,0,0,1-2.1,1.1h-1v9.8h2V23.4a5.12,5.12,0,0,0,2.6-1.7l9.1-12,.1-.1A7,7,0,0,0,30.5,2.6Z" transform="translate(-0.25 -0.3)"/></svg>