<svg id="Layer_1" data-name="Layer 1" xmlns="http://www.w3.org/2000/svg" viewBox="0 0 33.23 21.86"><title>ÖV</title><path d="M23.23,12.87c0,5.62-3.41,9-8.41,9S6.76,18,6.76,13.15c0-5.13,3.28-9,8.34-9C20.36,4.2,23.23,8.14,23.23,12.87ZM10.62,1.76A1.73,1.73,0,0,1,12.33,0h0a1.74,1.74,0,1,1-1.75,1.75Zm.23,11.34c0,3.36,1.58,5.72,4.17,5.72s4.12-2.49,4.12-5.82c0-3.08-1.47-5.72-4.14-5.72s-4.15,2.48-4.15,5.81ZM15.91,1.76A1.7,1.7,0,0,1,17.56,0h.08a1.74,1.74,0,1,1-1.73,1.75Z" transform="translate(-6.76 -0.01)"/><path d="M29.63,21.61,24.14,4.48h4.25l2.13,7.24c.58,2,1.12,4,1.53,6.13h.08c.43-2.06,1-4.09,1.55-6l2.19-7.32H40L34.16,21.61Z" transform="translate(-6.76 -0.01)"/></svg>